<svg width="128" height="128" viewBox="0 0 128 128" fill="none" xmlns="http://www.w3.org/2000/svg">
    <path d="M79.8347 116.195H49.185C45.7014 116.195 42.3605 114.812 39.8971 112.348C37.4337 109.885 36.0497 106.544 36.0494 103.061V98.8083C36.0708 97.6658 35.9772 96.5242 35.7703 95.4004H44.6231C44.7597 96.5307 44.8217 97.6688 44.8085 98.8072V103.061C44.811 104.22 45.2727 105.331 46.0925 106.151C46.9123 106.971 48.0235 107.433 49.1829 107.435H79.8347C80.9941 107.433 82.1053 106.971 82.9251 106.151C83.7449 105.331 84.2066 104.22 84.2091 103.061V98.6864C84.2115 97.527 84.6732 96.4158 85.493 95.596C86.3128 94.7762 87.424 94.3145 88.5834 94.3121H95.1252C98.3047 94.2936 101.371 93.1298 103.762 91.0341C106.153 88.9383 107.709 86.0509 108.144 82.9012L109.602 71.8455C109.744 70.7941 110.262 69.8296 111.06 69.1303C111.857 68.4309 112.881 68.0439 113.942 68.0409H119.226C115.169 56.6231 109.611 45.7954 102.7 35.8424C99.0556 30.9 94.3034 26.8805 88.8247 24.1066C83.3461 21.3328 77.2935 19.8817 71.1526 19.8698H71.0797C69.2115 19.8701 67.3456 19.9988 65.4951 20.2551C56.8434 21.5117 48.8504 25.5951 42.762 31.8691H31.4678C35.7879 25.5565 41.5556 20.3691 48.2893 16.74C55.0229 13.111 62.5271 11.1455 70.1751 11.0078C77.8232 10.8701 85.3933 12.5641 92.2532 15.9484C99.1131 19.3327 105.064 24.3091 109.608 30.462C112.302 33.7875 116.833 41.4333 120.886 49.4873C122.942 53.5732 124.678 57.3831 125.906 60.5045C127.294 64.0321 127.999 66.5661 127.999 68.0336C128.021 69.1903 127.81 70.3397 127.379 71.4132C126.947 72.4868 126.305 73.4627 125.488 74.2827C124.694 75.0814 123.748 75.7145 122.707 76.1456C121.666 76.5766 120.55 76.7969 119.423 76.7938H119.24H117.796L116.837 84.0396C116.128 89.2973 113.539 94.1205 109.549 97.6172C105.56 101.114 100.439 103.048 95.1335 103.061H92.9703C92.9703 106.545 91.5863 109.886 89.1229 112.349C86.6595 114.812 83.3185 116.195 79.8347 116.195Z" fill="#DFE3EC"/>
    <path d="M3.87347 44.3482C5.03543 43.7615 6.33872 43.5126 7.63511 43.6299C8.93151 43.7472 10.169 44.2259 11.2068 45.0116C11.3443 45.115 11.4741 45.2281 11.5953 45.3501L17.7985 51.6096C18.1498 47.2025 20.1451 43.0885 23.3885 40.0842C26.6319 37.0798 30.8864 35.4046 35.3074 35.3912H67.083C71.7631 35.395 76.2506 37.2556 79.5603 40.5646C82.8701 43.8736 84.7317 48.3605 84.7367 53.0407V74.2261C84.7315 78.9066 82.8698 83.3938 79.5603 86.7034C76.2507 90.013 71.7634 91.8746 67.083 91.8798H35.3074C30.8655 91.8667 26.5924 90.1762 23.3436 87.1468C20.0949 84.1175 18.1103 79.9728 17.7871 75.5426L11.588 81.7386C11.4686 81.8544 11.3423 81.9629 11.2099 82.0635C10.1688 82.8438 8.93097 83.3189 7.63512 83.4354C6.33928 83.552 5.03657 83.3055 3.87292 82.7235C2.70927 82.1415 1.73062 81.247 1.04661 80.1403C0.362592 79.0335 0.000216692 77.7581 7.17519e-05 76.4571V50.6202C-0.00584299 49.3171 0.354032 48.0384 1.03877 46.9296C1.72351 45.8209 2.70564 44.9265 3.87347 44.3482ZM35.3074 84.8173H67.083C69.8912 84.814 72.5835 83.697 74.5692 81.7113C76.5549 79.7256 77.6719 77.0333 77.6752 74.2251V53.0417C77.6719 50.2335 76.5549 47.5413 74.5692 45.5556C72.5835 43.5699 69.8912 42.4528 67.083 42.4495H35.3074C32.4992 42.4528 29.807 43.5699 27.8213 45.5556C25.8356 47.5413 24.7185 50.2335 24.7152 53.0417V74.2261C24.7188 77.0342 25.8359 79.7262 27.8216 81.7116C29.8073 83.6971 32.4994 84.814 35.3074 84.8173ZM17.6538 65.692V61.4947L7.06154 50.8056L6.97822 76.3581L17.6538 65.6888V65.692Z" fill="#C7CBD2"/>
</svg>